<svg width="843" height="156" viewBox="0 0 843 156" fill="none" xmlns="http://www.w3.org/2000/svg">
<path d="M409.959 62.5128C409.959 64.8185 408.088 66.678 405.767 66.678C403.446 66.678 401.574 64.8185 401.574 62.5128C401.574 60.2815 403.446 58.4221 405.767 58.4221C408.088 58.3477 409.959 60.2815 409.959 62.5128ZM409.285 69.8762V93.6025H402.397V69.8762H409.285Z" fill="black"/>
<path d="M437.211 80.2146V93.6769H430.323V81.3303C430.323 78.0577 428.527 76.1239 425.682 76.1239C423.81 76.1239 421.863 77.1651 420.89 78.8015V93.5282H414.002V69.8762H420.89V72.7025C422.238 70.6943 424.708 69.4299 427.404 69.4299C433.543 69.4299 437.211 73.5207 437.211 80.2146Z" fill="black"/>
<path d="M450.388 69.8762H456.303V76.347H450.388V93.6025H443.5V76.347H439.083V69.8762H443.5V68.1655C443.5 61.9922 447.468 58.4965 453.009 58.4965C454.281 58.4965 455.629 58.794 456.528 59.2402L456.153 65.2648C455.704 65.116 454.656 64.8929 453.982 64.8929C451.961 64.8929 450.313 66.3805 450.313 68.5374V69.8762H450.388Z" fill="black"/>
<path d="M475.395 69.8762L475.02 76.2726C474.122 75.9007 472.924 75.752 471.951 75.752C470.379 75.752 467.908 77.0164 466.71 79.3221V93.6769H459.822V69.8762H466.71V72.7025C467.908 70.6943 470.453 69.4299 472.475 69.4299C473.673 69.4299 474.646 69.5787 475.395 69.8762Z" fill="black"/>
<path d="M501 69.8761V93.6025H494.112V90.7762C492.914 92.71 490.069 94.0488 487.074 94.0488C480.86 94.0488 475.919 88.5448 475.919 81.7021C475.919 74.8594 480.86 69.3555 487.074 69.3555C490.069 69.3555 492.989 70.6943 494.112 72.6281V69.8018H501V69.8761ZM494.112 84.6772V78.8758C493.064 77.1651 490.968 75.8263 488.572 75.8263C485.203 75.8263 482.657 78.3552 482.657 81.7021C482.657 85.0491 485.203 87.5779 488.572 87.5779C490.968 87.6523 493.064 86.3879 494.112 84.6772Z" fill="black"/>
<path d="M367.796 53C354.079 53 343 64.0792 343 77.7964C343 91.4382 354.079 102.517 367.796 102.517C381.438 102.517 392.517 91.4382 392.517 77.7964C392.517 64.0792 381.438 53 367.796 53ZM361.013 91.4382C358.3 87.2175 357.169 86.0116 355.888 84.1274C349.632 74.9324 355.813 67.5462 359.129 65.2851C363.953 61.9689 372.771 61.2152 377.82 68.3753C378.348 69.129 378.047 70.2595 377.293 70.7871C376.539 71.3147 375.333 71.39 374.73 70.4856C372.168 66.6418 365.912 65.2098 361.465 68.2245C357.019 71.2393 355.436 77.0427 358.903 81.7156C361.842 85.7855 363.048 87.4436 364.254 89.3278C365.611 91.6643 362.596 93.6992 361.013 91.4382ZM370.434 92.3426C370.057 92.5687 368.701 93.1717 367.796 91.6643C366.892 90.1569 366.967 90.3076 366.214 88.951C365.46 87.5944 366.515 86.6146 366.892 86.3885C367.269 86.1623 368.55 85.484 369.455 87.0668C369.455 87.0668 370.208 88.348 371.037 89.7801C371.942 91.1367 370.887 92.1165 370.434 92.3426ZM373.374 89.4786C371.113 85.5594 369.756 82.9968 365.46 77.4195C364.103 75.6861 367.043 73.3496 368.55 75.3092C371.64 79.2284 375.107 84.7303 376.539 87.2929C377.82 89.8554 374.58 91.5135 373.374 89.4786ZM377.745 85.5594C376.388 83.2983 372.168 75.9875 369.228 73.2743C366.666 70.8624 361.918 74.1033 363.124 77.4195C363.5 78.4747 365.158 80.585 366.214 82.0171C367.872 84.2028 364.631 86.0116 363.124 84.1274C361.616 82.2432 361.239 81.5648 360.109 79.6806C359.129 78.0225 358.375 72.9728 362.445 70.2595C366.515 67.4708 370.962 69.2043 372.469 71.0886C373.977 72.9728 378.499 79.0023 380.911 83.6752C382.116 85.6348 379.026 87.7451 377.745 85.5594ZM382.493 78.324C382.116 78.6254 380.835 79.2284 379.855 77.7964C378.876 76.3644 378.951 76.5151 378.122 75.2338C377.218 73.9526 378.273 72.8974 378.65 72.5959C379.026 72.3698 380.232 71.6161 381.287 73.1235C381.287 73.1235 382.116 74.3294 383.021 75.6861C383.925 77.0427 382.87 78.0979 382.493 78.324Z" fill="black"/>
</svg>
